{"title":"The Colony 2013.1080p.BluRay.x264 . NVEE","uid":8917385,"size":2304155761,"categoryP":"video","categoryS":"hd___movies","magnet":"?xt=urn:btih:059df28e26ee172c55c1adc15d0034bb11925026&amp;dn=The+Colony+2013.1080p.BluRay.x264+.+NVEE&amp;tr=udp%3A%2F%2Ftracker.openbittorrent.com%3A80&amp;tr=udp%3A%2F%2Fopen.demonii.com%3A1337&amp;tr=udp%3A%2F%2Ftracker.coppersurfer.tk%3A6969&amp;tr=udp%3A%2F%2Fexodus.desync.com%3A6969","seeders":0,"leechers":0,"uploader":".NVEE","files":4,"time":1379174024,"description":"FULL_INFOs\n\n99.99% --- SYNCED GUARANTEED \n\n&quot;Totally scrutinized / analyzed to be a verified torrent.&quot;\n___________________________________________\n\nSource : BluRay ~ 1080p\n\nMy Media Player of Choice &quot;VLC Media Player&quot;\n\nSpoken Language : English Only\n\nAudio : 6 ~ Channels Only\n\nDon't delete torrent link,... Please seed . NVEE\n_____________________________________\n\n\n\n &lt;a href=&quot;\nhttp://www.imdb.com/title/tt1160996/&quot; rel=&quot;nofollow&quot; target=&quot;_NEW&quot;&gt;\nhttp://www.imdb.com/title/tt1160996/&lt;/a&gt;\n\n\n\n\nSubs Info : MULTI_SUBS\n &lt;a href=&quot;\nhttp://www.subtitleseeker.com/1160996/The+Colony/Subtitles/&quot; rel=&quot;nofollow&quot; target=&quot;_NEW&quot;&gt;\nhttp://www.subtitleseeker.com/1160996/The+Colony/Subtitles/&lt;/a&gt;\n\n430 Subtitles In 35 Languages Use Link Provided \n &lt;a href=&quot;\nhttp://www.subtitleseeker.com/1160996/The+Colony/Subtitles/&quot; rel=&quot;nofollow&quot; target=&quot;_NEW&quot;&gt;\nhttp://www.subtitleseeker.com/1160996/The+Colony/Subtitles/&lt;/a&gt;\n\n430 Subtitles In 35 Languages Only @ SubtitleSeeker\n &lt;a href=&quot;\nhttp://www.subtitleseeker.com/1160996/The+Colony/Subtitles/&quot; rel=&quot;nofollow&quot; target=&quot;_NEW&quot;&gt;\nhttp://www.subtitleseeker.com/1160996/The+Colony/Subtitles/&lt;/a&gt;\n\nAll .srt subs can be turned On/Off\n\n\n\n &lt;a href=&quot;\nhttp://www.imdb.com/title/tt1160996/&quot; rel=&quot;nofollow&quot; target=&quot;_NEW&quot;&gt;\nhttp://www.imdb.com/title/tt1160996/&lt;/a&gt;\n\n\n\n---------------------------------------------------------------------------------\n\nGeneral\n\nComplete name : The Colony 2013.1080p.BluRay.x264 . NVEE.mp4\nFormat : MPEG-4\nFormat profile : Base Media\nCodec ID : isom\nFile size : 2.15 GiB\nDuration : 1h 34mn\nOverall bit rate : 3 253 Kbps\nEncoded date : UTC 2013-09-13 18:54:43\nTagged date : UTC 2013-09-13 18:54:43\n\nVideo\n\nID : 1\nFormat : AVC\nFormat/Info : Advanced Video Codec\nFormat profile : &lt;a class=&quot;__cf_email__&quot; href=&quot;/cdn-cgi/l/email-protection&quot; data-cfemail=&quot;bbf3d2dcd3fbf78f958b&quot;&gt;[email&amp;#160;protected]&lt;/a&gt;&lt;script cf-hash='f9e31' type=&quot;text/javascript&quot;&gt;\n/* &lt;![CDATA[ */!function(){try{var t=&quot;currentScript&quot;in document?document.currentScript:function(){for(var t=document.getElementsByTagName(&quot;script&quot;),e=t.length;e--;)if(t[e].getAttribute(&quot;cf-hash&quot;))return t[e]}();if(t&amp;&amp;t.previousSibling){var e,r,n,i,c=t.previousSibling,a=c.getAttribute(&quot;data-cfemail&quot;);if(a){for(e=&quot;&quot;,r=parseInt(a.substr(0,2),16),n=2;a.length-n;n+=2)i=parseInt(a.substr(n,2),16)^r,e+=String.fromCharCode(i);e=document.createTextNode(e),c.parentNode.replaceChild(e,c)}}}catch(u){}}();/* ]]&gt; */&lt;/script&gt;\nFormat settings, CABAC : Yes\nFormat settings, ReFrames : 4 frames\nCodec ID : avc1\nCodec ID/Info : Advanced Video Coding\nDuration : 1h 34mn\nBit rate : 2 611 Kbps\nMaximum bit rate : 14.4 Mbps\nWidth : 1 920 pixels\nHeight : 816 pixels\nDisplay aspect ratio : 2.35:1\nFrame rate mode : Constant\nFrame rate : 23.976 fps\nColor space : YUV\nChroma subsampling : 4:2:0\nBit depth : 8 bits\nScan type : Progressive\nBits/(Pixel*Frame) : 0.070\nStream size : 1.72 GiB (80%)\nTitle : 1080p.BluRay.x264 .264#trackID=1:fps=&lt;a class=&quot;__cf_email__&quot; href=&quot;/cdn-cgi/l/email-protection&quot; data-cfemail=&quot;ead8d9c4d3dddcaaadbaaba9dac4dfc4dbc7aeafbcc7988f9cded8d2d9&quot;&gt;[email&amp;#160;protected]&lt;/a&gt;&lt;script cf-hash='f9e31' type=&quot;text/javascript&quot;&gt;\n/* &lt;![CDATA[ */!function(){try{var t=&quot;currentScript&quot;in document?document.currentScript:function(){for(var t=document.getElementsByTagName(&quot;script&quot;),e=t.length;e--;)if(t[e].getAttribute(&quot;cf-hash&quot;))return t[e]}();if(t&amp;&amp;t.previousSibling){var e,r,n,i,c=t.previousSibling,a=c.getAttribute(&quot;data-cfemail&quot;);if(a){for(e=&quot;&quot;,r=parseInt(a.substr(0,2),16),n=2;a.length-n;n+=2)i=parseInt(a.substr(n,2),16)^r,e+=String.fromCharCode(i);e=document.createTextNode(e),c.parentNode.replaceChild(e,c)}}}catch(u){}}();/* ]]&gt; */&lt;/script&gt;\nWriting library : x264 core 133 r2334 a3ac64b\nEncoded date : UTC 2013-09-13 18:54:43\nTagged date : UTC 2013-09-13 19:05:40\n\nAudio\n\nID : 2\nFormat : AC-3\nFormat/Info : Audio Coding 3\nMode extension : CM (complete main)\nFormat settings, Endianness : Big\nCodec ID : ac-3\nDuration : 1h 34mn\nBit rate mode : Constant\nBit rate : 640 Kbps\nChannel(s) : 6 channels\nChannel positions : Front: L C R, Side: L R, LFE\nSampling rate : 48.0 KHz\nBit depth : 16 bits\nCompression mode : Lossy\nStream size : 432 MiB (20%)\nTitle : 1080p.BluRay.x264 . NVEE - [0] English_audio.ac3#trackID=1:lang=&lt;a class=&quot;__cf_email__&quot; href=&quot;/cdn-cgi/l/email-protection&quot; data-cfemail=&quot;42272c0205120301726c776c736f0607146f30273476707a71&quot;&gt;[email&amp;#160;protected]&lt;/a&gt;&lt;script cf-hash='f9e31' type=&quot;text/javascript&quot;&gt;\n/* &lt;![CDATA[ */!function(){try{var t=&quot;currentScript&quot;in document?document.currentScript:function(){for(var t=document.getElementsByTagName(&quot;script&quot;),e=t.length;e--;)if(t[e].getAttribute(&quot;cf-hash&quot;))return t[e]}();if(t&amp;&amp;t.previousSibling){var e,r,n,i,c=t.previousSibling,a=c.getAttribute(&quot;data-cfemail&quot;);if(a){for(e=&quot;&quot;,r=parseInt(a.substr(0,2),16),n=2;a.length-n;n+=2)i=parseInt(a.substr(n,2),16)^r,e+=String.fromCharCode(i);e=document.createTextNode(e),c.parentNode.replaceChild(e,c)}}}catch(u){}}();/* ]]&gt; */&lt;/script&gt;\nLanguage : English\nEncoded date : UTC 2013-09-13 19:03:39\nTagged date : UTC 2013-09-13 19:05:40\n\n\n\n\nSynopsis\n\nBy 2045, humans have built weather machines to control the warming climate. The machines break down when one day it begins to snow and doesn't stop. Whatever humans remain live in underground bunkers to escape the extreme cold. Their challenges are controlling disease and producing sufficient food. Two soldiers, Briggs (Laurence Fishburne) and Mason (Bill Paxton) are the leaders of one such bunker, Colony 7. Briggs, Sam (Kevin Zegers) and Graydon (Atticus Dean Mitchell) travel to nearby Colony 5 after receiving a distress signal.\nUpon arrival, they find the place covered in blood. They eventually reach a locked door which Sam picks open. Inside they find Leyland, who shows them a message from a group of people who fixed the weather machine and have caused the snow to thaw. The group offers aid to anyone and asks that they bring seeds so they can be planted in the newly thawed soil. Leyland shows them where the signal came from but informs them that a Colony 5 expedition failed to return. Moreover, the expedition's tracks led a group back to Colony 5 and the killing ensued. Briggs, Sam, and Graydon force Leyland to return with them but he pushes them out and locks himself back into his room.\nThe three then begin to explore Colony 5 and approach a room with a fire burning to spot a human chopping members of Colony 5 while others feast on human remains. As the three try to escape, Graydon is killed by the cannibals. Briggs and Sam are able to make it up the ladder out of the colony and destroy the shaft with a stick of dynamite. Taking shelter in an abandoned helicopter, they wake up in the morning to find that the cannibals have tracked their footprints in the snow. Briggs suggests that they lose the group over a bridge using dynamite. Due to the cold weather though, the dynamite fuse goes out. Briggs is able to make it back but not before he is confronted by the cannibals. He lights the fuse and sacrifices himself to enable Sam to return to Colony 7.\nUpon Sam's return, Mason assumes control of the Colony and enforces harsh changes. Sam explains that the cannibals are en route and that there is a thawed out area they can migrate to. Mason disregards Sam's comments as shock from his voyage and handcuffs him to a bed. Sam is able to get free and collects a few seeds in an attempt to leave the Colony. He is confronted by Mason just as the cannibals have reached the Colony. After a fight, Sam and a few others survive but the Colony is destroyed. The survivors gather the seeds saved and begin their journey to the thawed out location.\n\nEnjoy !","torrent":{"xt":"urn:btih:059df28e26ee172c55c1adc15d0034bb11925026","amp;dn":"The+Colony+2013.1080p.BluRay.x264+.+NVEE","amp;tr":["udp%3A%2F%2Ftracker.openbittorrent.com%3A80","udp%3A%2F%2Fopen.demonii.com%3A1337","udp%3A%2F%2Ftracker.coppersurfer.tk%3A6969","udp%3A%2F%2Fexodus.desync.com%3A6969"],"infoHash":"059df28e26ee172c55c1adc15d0034bb11925026","infoHashBuffer":{"type":"Buffer","data":[5,157,242,142,38,238,23,44,85,193,173,193,93,0,52,187,17,146,80,38]},"announce":[],"urlList":[]}}